<?xml version="1.0"?>
<svg width="481.99999999999994" height="477.99999999999994" xmlns="http://www.w3.org/2000/svg" xmlns:svg="http://www.w3.org/2000/svg">
 <g class="layer">
  <title>Layer 1</title>
  <path d="m231.44,366.16l22.34,214.34l-135.69,-1.15l20.12,-149l0.04,-0.33l-0.29,-0.17l-23.55,-13.8l-0.29,-0.18l-0.27,0.22l-115.06,91.68l-70.08,-119.83l192.15,-87.1l110.58,65.32z" fill="none" id="svg_1" stroke="#ffffff" stroke-opacity="0.12"/>
  <path d="m481.29,216.49l-136.3,57.31l-0.31,0.13l0,28.28l0.31,0.13l136.3,56.16l-66.74,122.1l-169.8,-127.2l0,-130.66l169.81,-127.21l66.73,120.96z" fill="none" id="svg_2" stroke="#ffffff" stroke-opacity="0.12"/>
  <path d="m231.44,214.84l-110.58,65.32l-192.15,-87.1l68.96,-118.68l116.18,91.68l0.27,0.21l0.29,-0.17l23.55,-13.8l0.29,-0.17l-0.04,-0.33l-20.12,-149.01l135.69,-2.28l-22.34,214.33z" fill="none" id="svg_3" stroke="#ffffff" stroke-opacity="0.12"/>
 </g>
</svg>