<?xml version="1.0" encoding="UTF-8"?>
<!DOCTYPE svg PUBLIC "-//W3C//DTD SVG 1.1//EN" "http://www.w3.org/Graphics/SVG/1.1/DTD/svg11.dtd">
<svg xmlns="http://www.w3.org/2000/svg" version="1.1" width="1600px" height="1120px" style="shape-rendering:geometricPrecision; text-rendering:geometricPrecision; image-rendering:optimizeQuality; fill-rule:evenodd; clip-rule:evenodd" xmlns:xlink="http://www.w3.org/1999/xlink">
<g><path style="opacity:1" fill="#2b2a2a" d="M 945.5,561.5 C 945.369,562.239 945.536,562.906 946,563.5C 1034.48,470.559 1124.32,378.892 1215.5,288.5C 1223.43,282.908 1230.76,276.574 1237.5,269.5C 1240.43,268.243 1242.76,266.243 1244.5,263.5C 1246.75,262.92 1248.42,261.587 1249.5,259.5C 1265.54,258.972 1275.7,266.639 1280,282.5C 1280.67,467.833 1280.67,653.167 1280,838.5C 1274.17,857.163 1261.67,864.663 1242.5,861C 1236.97,859.409 1232.3,856.576 1228.5,852.5C 1224.23,846.944 1221.9,840.61 1221.5,833.5C 1221.67,671.5 1221.5,509.5 1221,347.5C 1220.28,348.044 1219.78,348.711 1219.5,349.5C 1218.17,350.167 1217.17,351.167 1216.5,352.5C 1123.04,450.464 1029.37,548.298 935.5,646C 919.17,656.156 904.337,654.323 891,640.5C 890.536,639.906 890.369,639.239 890.5,638.5C 890.573,636.973 889.906,635.973 888.5,635.5C 888.5,635.167 888.5,634.833 888.5,634.5C 888.002,631.513 887.502,628.513 887,625.5C 886.667,532.833 886.333,440.167 886,347.5C 884.198,348.789 883.031,350.456 882.5,352.5C 882.5,353.167 882.167,353.5 881.5,353.5C 878.5,354.5 876.5,356.5 875.5,359.5C 875.167,360.5 874.5,361.167 873.5,361.5C 862.446,371.553 852.113,382.219 842.5,393.5C 841.5,395.167 840.167,396.5 838.5,397.5C 836.5,397.5 835.5,398.5 835.5,400.5C 835.167,401.5 834.5,402.167 833.5,402.5C 821.446,413.552 810.113,425.219 799.5,437.5C 799.5,438.167 799.167,438.5 798.5,438.5C 795.833,439.167 794.167,440.833 793.5,443.5C 793.5,444.167 793.167,444.5 792.5,444.5C 779.114,456.885 766.447,469.885 754.5,483.5C 754.167,484.5 753.5,485.167 752.5,485.5C 738.447,498.552 725.114,512.218 712.5,526.5C 712.5,527.167 712.167,527.5 711.5,527.5C 698.114,539.885 685.447,552.885 673.5,566.5C 673.167,567.5 672.5,568.167 671.5,568.5C 657.447,581.552 644.114,595.218 631.5,609.5C 631.5,610.167 631.167,610.5 630.5,610.5C 619.779,620.22 609.779,630.553 600.5,641.5C 597.5,645.167 594.167,648.5 590.5,651.5C 579.446,661.553 569.113,672.219 559.5,683.5C 556.5,687.167 553.167,690.5 549.5,693.5C 538.446,703.553 528.113,714.219 518.5,725.5C 515.833,728.833 512.833,731.833 509.5,734.5C 498.446,744.553 488.113,755.219 478.5,766.5C 475.5,770.167 472.167,773.5 468.5,776.5C 457.779,786.22 447.779,796.553 438.5,807.5C 435.5,811.167 432.167,814.5 428.5,817.5C 417.779,827.22 407.779,837.553 398.5,848.5C 398.167,849.5 397.5,850.167 396.5,850.5C 395.167,850.5 394.5,851.167 394.5,852.5C 382.19,863.205 368.857,864.705 354.5,857C 341.583,845.557 338.749,832.057 346,816.5C 346.708,815.619 347.542,814.953 348.5,814.5C 350.262,813.738 351.262,812.404 351.5,810.5C 534.118,629.548 716.118,447.882 897.5,265.5C 899.8,262.676 902.8,260.843 906.5,260C 925.064,256.197 937.897,263.031 945,280.5C 945.5,374.166 945.667,467.833 945.5,561.5 Z"/></g>
<g><path style="opacity:1" fill="#5b5a59" d="M 1249.5,259.5 C 1248.42,261.587 1246.75,262.92 1244.5,263.5C 1245.58,261.413 1247.25,260.08 1249.5,259.5 Z"/></g>
<g><path style="opacity:0.937" fill="#626261" d="M 1244.5,263.5 C 1242.76,266.243 1240.43,268.243 1237.5,269.5C 1239.24,266.757 1241.57,264.757 1244.5,263.5 Z"/></g>
<g><path style="opacity:0.937" fill="#656363" d="M 1237.5,269.5 C 1230.76,276.574 1223.43,282.908 1215.5,288.5C 1222.24,281.426 1229.57,275.092 1237.5,269.5 Z"/></g>
<g><path style="opacity:0.812" fill="#706c6a" d="M 888.5,634.5 C 887.207,633.158 886.374,631.491 886,629.5C 885.667,536.5 885.333,443.5 885,350.5C 884.292,351.381 883.458,352.047 882.5,352.5C 883.031,350.456 884.198,348.789 886,347.5C 886.333,440.167 886.667,532.833 887,625.5C 887.502,628.513 888.002,631.513 888.5,634.5 Z"/></g>
<g><path style="opacity:0.435" fill="#696867" d="M 881.5,353.5 C 879.833,355.833 877.833,357.833 875.5,359.5C 876.5,356.5 878.5,354.5 881.5,353.5 Z"/></g>
<g><path style="opacity:0.059" fill="#727170" d="M 873.5,361.5 C 863.887,372.781 853.554,383.447 842.5,393.5C 852.113,382.219 862.446,371.553 873.5,361.5 Z"/></g>
<g><path style="opacity:0.498" fill="#686766" d="M 838.5,397.5 C 837.833,398.833 836.833,399.833 835.5,400.5C 835.5,398.5 836.5,397.5 838.5,397.5 Z"/></g>
<g><path style="opacity:0.059" fill="#71716f" d="M 833.5,402.5 C 822.887,414.781 811.554,426.448 799.5,437.5C 810.113,425.219 821.446,413.552 833.5,402.5 Z"/></g>
<g><path style="opacity:0.96" fill="#6f6c69" d="M 1219.5,349.5 C 1220.5,428.332 1220.83,507.332 1220.5,586.5C 1219.68,583.023 1219.18,579.356 1219,575.5C 1218.83,616.669 1218.33,657.669 1217.5,698.5C 1217.83,582.999 1217.5,467.665 1216.5,352.5C 1217.17,351.167 1218.17,350.167 1219.5,349.5 Z"/></g>
<g><path style="opacity:0.561" fill="#656564" d="M 798.5,438.5 C 797.167,440.5 795.5,442.167 793.5,443.5C 794.167,440.833 795.833,439.167 798.5,438.5 Z"/></g>
<g><path style="opacity:0.059" fill="#70706f" d="M 792.5,444.5 C 780.553,458.115 767.886,471.115 754.5,483.5C 766.447,469.885 779.114,456.885 792.5,444.5 Z"/></g>
<g><path style="opacity:0.812" fill="#737270" d="M 1215.5,288.5 C 1124.32,378.892 1034.48,470.559 946,563.5C 945.536,562.906 945.369,562.239 945.5,561.5C 1031.22,471.682 1118.22,382.848 1206.5,295C 1209.4,292.59 1212.4,290.423 1215.5,288.5 Z"/></g>
<g><path style="opacity:1" fill="#2b2a2a" d="M 861.5,495.5 C 861.333,588.167 861.5,680.834 862,773.5C 862.717,772.956 863.217,772.289 863.5,771.5C 956.224,675.058 1048.72,578.391 1141,481.5C 1145.11,477.216 1149.61,473.549 1154.5,470.5C 1170.23,464.764 1183.07,468.764 1193,482.5C 1195.7,487.125 1197.04,492.125 1197,497.5C 1197.67,609.167 1197.67,720.833 1197,832.5C 1193.6,854.78 1180.77,864.28 1158.5,861C 1153.2,859.513 1148.87,856.68 1145.5,852.5C 1144.5,850.833 1143.17,849.5 1141.5,848.5C 1139.62,843.696 1138.46,838.696 1138,833.5C 1137.67,741.5 1137.33,649.5 1137,557.5C 1135.62,558.705 1134.46,560.038 1133.5,561.5C 1040.37,659.131 947.037,756.631 853.5,854C 838.008,865.377 823.175,864.544 809,851.5C 805.903,847.712 804.07,843.378 803.5,838.5C 803.833,744.498 803.5,650.498 802.5,556.5C 801.702,556.957 801.369,557.624 801.5,558.5C 706.012,658.821 610.012,758.654 513.5,858C 499.467,864.567 486.633,862.733 475,852.5C 466.207,840.884 465.373,828.884 472.5,816.5C 473.906,816.027 474.573,815.027 474.5,813.5C 587.299,700.201 700.299,587.035 813.5,474C 829.79,464.422 844.29,466.589 857,480.5C 860.021,485.062 861.521,490.062 861.5,495.5 Z"/></g>
<g><path style="opacity:0.247" fill="#686868" d="M 861.5,495.5 C 862.499,586.332 862.833,677.332 862.5,768.5C 862.263,769.791 862.596,770.791 863.5,771.5C 863.217,772.289 862.717,772.956 862,773.5C 861.5,680.834 861.333,588.167 861.5,495.5 Z"/></g>
<g><path style="opacity:0.435" fill="#6c6c6b" d="M 752.5,485.5 C 739.886,499.782 726.553,513.448 712.5,526.5C 725.114,512.218 738.447,498.552 752.5,485.5 Z"/></g>
<g><path style="opacity:0.059" fill="#706f6e" d="M 711.5,527.5 C 699.553,541.115 686.886,554.115 673.5,566.5C 685.447,552.885 698.114,539.885 711.5,527.5 Z"/></g>
<g><path style="opacity:0.937" fill="#73716f" d="M 1154.5,470.5 C 1149.61,473.549 1145.11,477.216 1141,481.5C 1048.72,578.391 956.224,675.058 863.5,771.5C 862.596,770.791 862.263,769.791 862.5,768.5C 953.466,674.032 1044.3,579.365 1135,484.5C 1140.11,477.714 1146.61,473.047 1154.5,470.5 Z"/></g>
<g><path style="opacity:0.812" fill="#3e3d3d" d="M 803.5,838.5 C 802.833,745.167 802.167,651.833 801.5,558.5C 801.369,557.624 801.702,556.957 802.5,556.5C 803.5,650.498 803.833,744.498 803.5,838.5 Z"/></g>
<g><path style="opacity:1" fill="#5c5957" d="M 1221.5,833.5 C 1220.5,751.335 1220.17,669.002 1220.5,586.5C 1220.83,507.332 1220.5,428.332 1219.5,349.5C 1219.78,348.711 1220.28,348.044 1221,347.5C 1221.5,509.5 1221.67,671.5 1221.5,833.5 Z"/></g>
<g><path style="opacity:0.968" fill="#6b6865" d="M 1220.5,586.5 C 1220.17,669.002 1220.5,751.335 1221.5,833.5C 1221.9,840.61 1224.23,846.944 1228.5,852.5C 1222.8,848.801 1219.3,843.468 1218,836.5C 1217.5,790.501 1217.33,744.501 1217.5,698.5C 1218.33,657.669 1218.83,616.669 1219,575.5C 1219.18,579.356 1219.68,583.023 1220.5,586.5 Z"/></g>
<g><path style="opacity:0.937" fill="#414141" d="M 897.5,265.5 C 716.118,447.882 534.118,629.548 351.5,810.5C 532.882,628.118 714.882,446.452 897.5,265.5 Z"/></g>
<g><path style="opacity:0.435" fill="#6c6c6a" d="M 671.5,568.5 C 658.886,582.782 645.553,596.448 631.5,609.5C 644.114,595.218 657.447,581.552 671.5,568.5 Z"/></g>
<g><path style="opacity:0.059" fill="#727170" d="M 630.5,610.5 C 621.221,621.447 611.221,631.78 600.5,641.5C 609.779,630.553 619.779,620.22 630.5,610.5 Z"/></g>
<g><path style="opacity:0.435" fill="#5b5a5a" d="M 888.5,635.5 C 889.906,635.973 890.573,636.973 890.5,638.5C 889.094,638.027 888.427,637.027 888.5,635.5 Z"/></g>
<g><path style="opacity:0.059" fill="#727170" d="M 590.5,651.5 C 580.887,662.781 570.554,673.447 559.5,683.5C 569.113,672.219 579.446,661.553 590.5,651.5 Z"/></g>
<g><path style="opacity:0.977" fill="#6c6966" d="M 1141.5,848.5 C 1138.06,845.288 1135.89,841.288 1135,836.5C 1134.83,744.666 1134.33,652.999 1133.5,561.5C 1134.46,560.038 1135.62,558.705 1137,557.5C 1137.33,649.5 1137.67,741.5 1138,833.5C 1138.46,838.696 1139.62,843.696 1141.5,848.5 Z"/></g>
<g><path style="opacity:0.184" fill="#716e6e" d="M 549.5,693.5 C 539.887,704.781 529.554,715.447 518.5,725.5C 528.113,714.219 538.446,703.553 549.5,693.5 Z"/></g>
<g><path style="opacity:0.059" fill="#727070" d="M 509.5,734.5 C 499.887,745.781 489.554,756.447 478.5,766.5C 488.113,755.219 498.446,744.553 509.5,734.5 Z"/></g>
<g><path style="opacity:0.184" fill="#706e6d" d="M 468.5,776.5 C 459.221,787.447 449.221,797.78 438.5,807.5C 447.779,796.553 457.779,786.22 468.5,776.5 Z"/></g>
<g><path style="opacity:0.875" fill="#515151" d="M 351.5,810.5 C 351.262,812.404 350.262,813.738 348.5,814.5C 348.738,812.596 349.738,811.262 351.5,810.5 Z"/></g>
<g><path style="opacity:0.686" fill="#595959" d="M 474.5,813.5 C 474.573,815.027 473.906,816.027 472.5,816.5C 472.427,814.973 473.094,813.973 474.5,813.5 Z"/></g>
<g><path style="opacity:0.184" fill="#6f6e6d" d="M 428.5,817.5 C 419.221,828.447 409.221,838.78 398.5,848.5C 407.779,837.553 417.779,827.22 428.5,817.5 Z"/></g>
<g><path style="opacity:0.122" fill="#6b6a6a" d="M 1141.5,848.5 C 1143.17,849.5 1144.5,850.833 1145.5,852.5C 1143.17,852.167 1141.83,850.833 1141.5,848.5 Z"/></g>
<g><path style="opacity:0.184" fill="#676766" d="M 396.5,850.5 C 396.167,851.5 395.5,852.167 394.5,852.5C 394.5,851.167 395.167,850.5 396.5,850.5 Z"/></g>
</svg>
