<?xml version="1.0" encoding="UTF-8"?>
<!DOCTYPE svg PUBLIC "-//W3C//DTD SVG 1.1//EN" "http://www.w3.org/Graphics/SVG/1.1/DTD/svg11.dtd">
<svg xmlns="http://www.w3.org/2000/svg" version="1.1" width="1600px" height="1120px" style="shape-rendering:geometricPrecision; text-rendering:geometricPrecision; image-rendering:optimizeQuality; fill-rule:evenodd; clip-rule:evenodd" xmlns:xlink="http://www.w3.org/1999/xlink">
<g><path style="opacity:0.999" fill="#fbfbfb" d="M 945.5,561.5 C 945.369,562.239 945.536,562.906 946,563.5C 948.127,561.886 949.627,559.886 950.5,557.5C 1002.43,504.905 1054.09,451.905 1105.5,398.5C 1139.83,363.833 1174.17,329.167 1208.5,294.5C 1208.5,293.833 1208.83,293.5 1209.5,293.5C 1212.09,292.581 1214.09,290.914 1215.5,288.5C 1218.76,286.906 1221.43,284.573 1223.5,281.5C 1226.43,280.243 1228.76,278.243 1230.5,275.5C 1233.43,274.243 1235.76,272.243 1237.5,269.5C 1240.43,268.243 1242.76,266.243 1244.5,263.5C 1246.75,262.92 1248.42,261.587 1249.5,259.5C 1265.54,258.972 1275.7,266.639 1280,282.5C 1280.67,467.833 1280.67,653.167 1280,838.5C 1274.17,857.163 1261.67,864.663 1242.5,861C 1236.97,859.409 1232.3,856.576 1228.5,852.5C 1224,846.994 1221.66,840.66 1221.5,833.5C 1221.67,671.5 1221.5,509.5 1221,347.5C 1220.28,348.044 1219.78,348.711 1219.5,349.5C 1218.5,349.833 1217.83,350.5 1217.5,351.5C 1216.83,351.5 1216.5,351.833 1216.5,352.5C 1123.04,450.464 1029.37,548.298 935.5,646C 919.17,656.156 904.337,654.323 891,640.5C 888.815,637.113 887.315,633.446 886.5,629.5C 886.833,535.831 886.5,442.164 885.5,348.5C 884.702,348.957 884.369,349.624 884.5,350.5C 881.167,354.5 877.5,358.167 873.5,361.5C 869.434,364.563 866.101,368.229 863.5,372.5C 853.833,382.833 843.833,392.833 833.5,402.5C 829.102,405.895 825.436,409.895 822.5,414.5C 812.833,424.833 802.833,434.833 792.5,444.5C 788.434,447.563 785.101,451.229 782.5,455.5C 772.833,465.833 762.833,475.833 752.5,485.5C 748.102,488.895 744.436,492.895 741.5,497.5C 731.833,507.833 721.833,517.833 711.5,527.5C 707.434,530.563 704.101,534.229 701.5,538.5C 691.833,548.833 681.833,558.833 671.5,568.5C 667.102,571.895 663.436,575.895 660.5,580.5C 650.833,590.833 640.833,600.833 630.5,610.5C 628.738,611.262 627.738,612.596 627.5,614.5C 615.5,627.167 603.167,639.5 590.5,651.5C 588.738,652.262 587.738,653.596 587.5,655.5C 575.167,668.5 562.5,681.167 549.5,693.5C 547.738,694.262 546.738,695.596 546.5,697.5C 534.5,710.167 522.167,722.5 509.5,734.5C 507.738,735.262 506.738,736.596 506.5,738.5C 494.167,751.5 481.5,764.167 468.5,776.5C 466.738,777.262 465.738,778.596 465.5,780.5C 453.5,793.167 441.167,805.5 428.5,817.5C 426.738,818.262 425.738,819.596 425.5,821.5C 413.269,835.233 399.935,847.733 385.5,859C 365.63,866.152 351.464,859.986 343,840.5C 341.202,832.884 342.035,825.551 345.5,818.5C 346.906,818.027 347.573,817.027 347.5,815.5C 347.5,814.833 347.833,814.5 348.5,814.5C 349.906,814.027 350.573,813.027 350.5,811.5C 531.965,629.535 713.632,447.701 895.5,266C 911.565,255.028 926.398,256.528 940,270.5C 942.194,273.554 943.861,276.888 945,280.5C 945.5,374.166 945.667,467.833 945.5,561.5 Z"/></g>
<g><path style="opacity:1" fill="#848484" d="M 1249.5,259.5 C 1248.42,261.587 1246.75,262.92 1244.5,263.5C 1245.58,261.413 1247.25,260.08 1249.5,259.5 Z"/></g>
<g><path style="opacity:0.937" fill="#747474" d="M 1244.5,263.5 C 1242.76,266.243 1240.43,268.243 1237.5,269.5C 1239.24,266.757 1241.57,264.757 1244.5,263.5 Z"/></g>
<g><path style="opacity:0.937" fill="#707070" d="M 1237.5,269.5 C 1235.76,272.243 1233.43,274.243 1230.5,275.5C 1232.24,272.757 1234.57,270.757 1237.5,269.5 Z"/></g>
<g><path style="opacity:0.875" fill="#6a6a6a" d="M 1230.5,275.5 C 1228.76,278.243 1226.43,280.243 1223.5,281.5C 1225.24,278.757 1227.57,276.757 1230.5,275.5 Z"/></g>
<g><path style="opacity:0.812" fill="#696969" d="M 1223.5,281.5 C 1221.43,284.573 1218.76,286.906 1215.5,288.5C 1217.57,285.427 1220.24,283.094 1223.5,281.5 Z"/></g>
<g><path style="opacity:0.937" fill="#6c6c6c" d="M 1215.5,288.5 C 1214.09,290.914 1212.09,292.581 1209.5,293.5C 1210.91,291.086 1212.91,289.419 1215.5,288.5 Z"/></g>
<g><path style="opacity:0.561" fill="#2c2c2c" d="M 1208.5,294.5 C 1174.17,329.167 1139.83,363.833 1105.5,398.5C 1105.17,398.5 1104.83,398.5 1104.5,398.5C 1137.92,363.584 1171.92,329.084 1206.5,295C 1207.09,294.536 1207.76,294.369 1208.5,294.5 Z"/></g>
<g><path style="opacity:1" fill="#c0c0c0" d="M 1221.5,833.5 C 1220.83,672.167 1220.17,510.833 1219.5,349.5C 1219.78,348.711 1220.28,348.044 1221,347.5C 1221.5,509.5 1221.67,671.5 1221.5,833.5 Z"/></g>
<g><path style="opacity:0.059" fill="#272727" d="M 873.5,361.5 C 870.899,365.771 867.566,369.437 863.5,372.5C 866.101,368.229 869.434,364.563 873.5,361.5 Z"/></g>
<g><path style="opacity:0.059" fill="#262626" d="M 833.5,402.5 C 830.564,407.105 826.898,411.105 822.5,414.5C 825.436,409.895 829.102,405.895 833.5,402.5 Z"/></g>
<g><path style="opacity:0.875" fill="#919191" d="M 1216.5,352.5 C 1216.5,351.833 1216.83,351.5 1217.5,351.5C 1218.5,512.999 1218.83,674.666 1218.5,836.5C 1217.83,675.167 1217.17,513.833 1216.5,352.5 Z"/></g>
<g><path style="opacity:0.059" fill="#272727" d="M 792.5,444.5 C 789.899,448.771 786.566,452.437 782.5,455.5C 785.101,451.229 788.434,447.563 792.5,444.5 Z"/></g>
<g><path style="opacity:1" fill="#fbfbfb" d="M 861.5,495.5 C 861.5,587.167 861.5,678.833 861.5,770.5C 861.369,771.376 861.702,772.043 862.5,772.5C 947.039,684.136 1031.54,596.136 1116,508.5C 1120.97,502.531 1126.3,496.865 1132,491.5C 1134.52,487.776 1137.02,484.109 1139.5,480.5C 1142.53,480.163 1144.53,478.496 1145.5,475.5C 1147.97,474.702 1149.97,473.369 1151.5,471.5C 1166.43,464.947 1179.6,467.614 1191,479.5C 1193.19,482.554 1194.86,485.888 1196,489.5C 1197.65,603.811 1197.98,718.144 1197,832.5C 1193.6,854.78 1180.77,864.28 1158.5,861C 1150.87,858.525 1144.87,854.025 1140.5,847.5C 1139.36,843.583 1138.53,839.583 1138,835.5C 1137.67,742.833 1137.33,650.167 1137,557.5C 1135.37,558.532 1134.21,559.866 1133.5,561.5C 1040.37,659.131 947.037,756.631 853.5,854C 838.008,865.377 823.175,864.544 809,851.5C 805.903,847.712 804.07,843.378 803.5,838.5C 803.833,744.498 803.5,650.498 802.5,556.5C 801.702,556.957 801.369,557.624 801.5,558.5C 706.012,658.821 610.012,758.654 513.5,858C 499.467,864.567 486.633,862.733 475,852.5C 466.207,840.884 465.373,828.884 472.5,816.5C 473.906,816.027 474.573,815.027 474.5,813.5C 587.299,700.201 700.299,587.035 813.5,474C 829.79,464.422 844.29,466.589 857,480.5C 860.021,485.062 861.521,490.062 861.5,495.5 Z"/></g>
<g><path style="opacity:0.812" fill="#646464" d="M 1151.5,471.5 C 1149.97,473.369 1147.97,474.702 1145.5,475.5C 1146.8,473.178 1148.8,471.845 1151.5,471.5 Z"/></g>
<g><path style="opacity:0.812" fill="#868686" d="M 886.5,629.5 C 885.833,536.5 885.167,443.5 884.5,350.5C 884.369,349.624 884.702,348.957 885.5,348.5C 886.5,442.164 886.833,535.831 886.5,629.5 Z"/></g>
<g><path style="opacity:0.812" fill="#575757" d="M 1145.5,475.5 C 1144.53,478.496 1142.53,480.163 1139.5,480.5C 1140.91,478.086 1142.91,476.419 1145.5,475.5 Z"/></g>
<g><path style="opacity:0.059" fill="#272727" d="M 752.5,485.5 C 749.564,490.105 745.898,494.105 741.5,497.5C 744.436,492.895 748.102,488.895 752.5,485.5 Z"/></g>
<g><path style="opacity:0.246" fill="#000000" d="M 861.5,495.5 C 862.167,586.5 862.833,677.5 863.5,768.5C 863.167,769.5 862.5,770.167 861.5,770.5C 861.5,678.833 861.5,587.167 861.5,495.5 Z"/></g>
<g><path style="opacity:0.937" fill="#606060" d="M 1104.5,398.5 C 1104.83,398.5 1105.17,398.5 1105.5,398.5C 1054.09,451.905 1002.43,504.905 950.5,557.5C 1001.13,503.865 1052.47,450.865 1104.5,398.5 Z"/></g>
<g><path style="opacity:0.059" fill="#272727" d="M 711.5,527.5 C 708.899,531.771 705.566,535.437 701.5,538.5C 704.101,534.229 707.434,530.563 711.5,527.5 Z"/></g>
<g><path style="opacity:1" fill="#a3a3a3" d="M 1219.5,349.5 C 1220.17,510.833 1220.83,672.167 1221.5,833.5C 1221.66,840.66 1224,846.994 1228.5,852.5C 1222.67,848.868 1219.34,843.534 1218.5,836.5C 1218.83,674.666 1218.5,512.999 1217.5,351.5C 1217.83,350.5 1218.5,349.833 1219.5,349.5 Z"/></g>
<g><path style="opacity:0.812" fill="#dbdbdb" d="M 803.5,838.5 C 802.833,745.167 802.167,651.833 801.5,558.5C 801.369,557.624 801.702,556.957 802.5,556.5C 803.5,650.498 803.833,744.498 803.5,838.5 Z"/></g>
<g><path style="opacity:0.937" fill="#636363" d="M 950.5,557.5 C 949.627,559.886 948.127,561.886 946,563.5C 945.536,562.906 945.369,562.239 945.5,561.5C 947.167,560.167 948.833,558.833 950.5,557.5 Z"/></g>
<g><path style="opacity:0.059" fill="#272727" d="M 671.5,568.5 C 668.564,573.105 664.898,577.105 660.5,580.5C 663.436,575.895 667.102,571.895 671.5,568.5 Z"/></g>
<g><path style="opacity:0.059" fill="#232323" d="M 630.5,610.5 C 630.262,612.404 629.262,613.738 627.5,614.5C 627.738,612.596 628.738,611.262 630.5,610.5 Z"/></g>
<g><path style="opacity:0.937" fill="#717171" d="M 1139.5,480.5 C 1137.02,484.109 1134.52,487.776 1132,491.5C 1126.3,496.865 1120.97,502.531 1116,508.5C 1031.54,596.136 947.039,684.136 862.5,772.5C 861.702,772.043 861.369,771.376 861.5,770.5C 862.5,770.167 863.167,769.5 863.5,768.5C 884.164,746.503 905.164,724.836 926.5,703.5C 928.914,702.089 930.581,700.089 931.5,697.5C 937.167,691.167 943.167,685.167 949.5,679.5C 951.914,678.089 953.581,676.089 954.5,673.5C 1015.83,608.837 1077.5,544.504 1139.5,480.5 Z"/></g>
<g><path style="opacity:1" fill="#9f9f9f" d="M 1140.5,847.5 C 1137.64,844.443 1135.8,840.776 1135,836.5C 1134.83,744.666 1134.33,652.999 1133.5,561.5C 1134.21,559.866 1135.37,558.532 1137,557.5C 1137.33,650.167 1137.67,742.833 1138,835.5C 1138.53,839.583 1139.36,843.583 1140.5,847.5 Z"/></g>
<g><path style="opacity:0.059" fill="#232323" d="M 590.5,651.5 C 590.262,653.404 589.262,654.738 587.5,655.5C 587.738,653.596 588.738,652.262 590.5,651.5 Z"/></g>
<g><path style="opacity:0.561" fill="#303030" d="M 954.5,673.5 C 953.581,676.089 951.914,678.089 949.5,679.5C 950.419,676.911 952.086,674.911 954.5,673.5 Z"/></g>
<g><path style="opacity:0.059" fill="#232323" d="M 549.5,693.5 C 549.262,695.404 548.262,696.738 546.5,697.5C 546.738,695.596 547.738,694.262 549.5,693.5 Z"/></g>
<g><path style="opacity:0.561" fill="#303030" d="M 931.5,697.5 C 930.581,700.089 928.914,702.089 926.5,703.5C 927.419,700.911 929.086,698.911 931.5,697.5 Z"/></g>
<g><path style="opacity:0.059" fill="#232323" d="M 509.5,734.5 C 509.262,736.404 508.262,737.738 506.5,738.5C 506.738,736.596 507.738,735.262 509.5,734.5 Z"/></g>
<g><path style="opacity:0.059" fill="#232323" d="M 468.5,776.5 C 468.262,778.404 467.262,779.738 465.5,780.5C 465.738,778.596 466.738,777.262 468.5,776.5 Z"/></g>
<g><path style="opacity:0.686" fill="#636363" d="M 350.5,811.5 C 350.573,813.027 349.906,814.027 348.5,814.5C 348.427,812.973 349.094,811.973 350.5,811.5 Z"/></g>
<g><path style="opacity:0.686" fill="#636363" d="M 474.5,813.5 C 474.573,815.027 473.906,816.027 472.5,816.5C 472.427,814.973 473.094,813.973 474.5,813.5 Z"/></g>
<g><path style="opacity:0.498" fill="#606060" d="M 347.5,815.5 C 347.573,817.027 346.906,818.027 345.5,818.5C 345.427,816.973 346.094,815.973 347.5,815.5 Z"/></g>
<g><path style="opacity:0.059" fill="#232323" d="M 428.5,817.5 C 428.262,819.404 427.262,820.738 425.5,821.5C 425.738,819.596 426.738,818.262 428.5,817.5 Z"/></g>
</svg>
